<svg width="128" height="128" viewBox="0 0 128 128" fill="none" xmlns="http://www.w3.org/2000/svg">
<g clip-path="url(#clip0_4_6)">
<circle cx="64" cy="64" r="64" fill="url(#paint0_linear_4_6)"/>
<path d="M18.1295 58.962H20.7354V64.0626H23.9297V66.0862H20.7354V75.4836H18.1295V66.0862H16V64.0626H18.1295V58.962Z" fill="white"/>
<path d="M29.4042 64.0072L29.6564 67.3337L29.5163 66.8901C29.8151 66.1879 30.2448 65.5965 30.8052 65.116C31.3843 64.617 31.982 64.2382 32.5985 63.9795C33.2336 63.7023 33.7847 63.5637 34.2517 63.5637L34.1116 66.114C33.2336 66.0585 32.4584 66.2248 31.7859 66.6129C31.1321 67.001 30.6091 67.5185 30.2168 68.1653C29.8432 68.8121 29.6564 69.5051 29.6564 70.2444V75.4836H27.0785V64.0072H29.4042Z" fill="white"/>
<path d="M36.1122 69.6345C36.1122 68.4887 36.3831 67.4538 36.9248 66.5298C37.4852 65.6057 38.2511 64.8758 39.2224 64.3398C40.1938 63.8039 41.2959 63.5359 42.5288 63.5359C43.7991 63.5359 44.9105 63.8039 45.8632 64.3398C46.8159 64.8758 47.5538 65.6057 48.0768 66.5298C48.5999 67.4538 48.8614 68.4887 48.8614 69.6345C48.8614 70.7803 48.5999 71.8244 48.0768 72.7669C47.5538 73.691 46.8066 74.4209 45.8352 74.9569C44.8825 75.4928 43.7711 75.7608 42.5008 75.7608C41.2679 75.7608 40.1658 75.5113 39.1944 75.0123C38.2417 74.4949 37.4852 73.7834 36.9248 72.8778C36.3831 71.9538 36.1122 70.8727 36.1122 69.6345ZM38.7181 69.6622C38.7181 70.4014 38.8862 71.076 39.2224 71.6858C39.5587 72.2772 40.007 72.7485 40.5674 73.0996C41.1465 73.4507 41.7816 73.6263 42.4728 73.6263C43.2013 73.6263 43.8458 73.4507 44.4062 73.0996C44.9853 72.7485 45.4336 72.2772 45.7512 71.6858C46.0687 71.076 46.2275 70.4014 46.2275 69.6622C46.2275 68.923 46.0687 68.2577 45.7512 67.6663C45.4336 67.0565 44.9853 66.576 44.4062 66.2248C43.8458 65.8552 43.2013 65.6704 42.4728 65.6704C41.7629 65.6704 41.1185 65.8552 40.5394 66.2248C39.979 66.5945 39.5307 67.0842 39.1944 67.694C38.8769 68.2854 38.7181 68.9415 38.7181 69.6622Z" fill="white"/>
<path d="M59.2267 75.7608C58.3487 75.7608 57.4988 75.5575 56.6769 75.1509C55.8736 74.7444 55.2478 74.1992 54.7995 73.5154L54.9676 72.7115V81H52.3898V63.8409H54.6314L54.9956 66.7793L54.7154 65.9754C55.2758 65.2731 55.9857 64.691 56.845 64.229C57.7043 63.7669 58.6663 63.5359 59.7311 63.5359C60.8145 63.5359 61.7859 63.7947 62.6452 64.3121C63.5231 64.8296 64.2143 65.5503 64.7187 66.4743C65.223 67.3984 65.4752 68.4795 65.4752 69.7177C65.4752 70.9559 65.2044 72.0277 64.6626 72.9333C64.1209 73.8388 63.3737 74.5411 62.421 75.04C61.487 75.5205 60.4222 75.7608 59.2267 75.7608ZM58.7223 73.7094C59.4695 73.7094 60.1514 73.5431 60.7678 73.2105C61.4029 72.8593 61.9073 72.3881 62.2809 71.7967C62.6545 71.1869 62.8413 70.5031 62.8413 69.7454C62.8413 68.9692 62.6639 68.2854 62.3089 67.694C61.954 67.0842 61.4777 66.6037 60.8799 66.2526C60.3008 65.9014 59.647 65.7259 58.9185 65.7259C58.246 65.7259 57.6389 65.8552 57.0972 66.114C56.5554 66.3727 56.1071 66.7331 55.7522 67.1951C55.3973 67.6386 55.1451 68.1561 54.9956 68.7474V70.6602C55.089 71.2515 55.3132 71.7782 55.6681 72.2402C56.0231 72.7023 56.462 73.0626 56.9851 73.3214C57.5268 73.5801 58.1059 73.7094 58.7223 73.7094Z" fill="white"/>
<path d="M68.9994 64.0072H71.6053V75.4836H68.9994V64.0072Z" fill="white"/>
<path d="M76.1139 64.0072H78.7198V75.4836H76.1139V64.0072Z" fill="white"/>
<path d="M83.2285 64.0072H85.8343V75.4836H83.2285V64.0072Z" fill="white"/>
<path d="M91.2957 75.4836V66.308H89.3062V64.0072H91.2957V59.1561C91.2957 57.4928 91.6693 56.2177 92.4165 55.3306C93.1824 54.4435 94.3032 54 95.7789 54C96.1712 54 96.6008 54.0554 97.0678 54.1663C97.5535 54.2772 97.9738 54.462 98.3287 54.7207L97.2359 56.578C97.0678 56.4117 96.881 56.3008 96.6755 56.2454C96.4701 56.1715 96.2646 56.1345 96.0591 56.1345C95.3679 56.1345 94.8356 56.3655 94.4619 56.8275C94.0883 57.2895 93.9015 58.0749 93.9015 59.1838V64.0072H97.5722V66.308H93.9015V75.4836H91.2957Z" fill="white"/>
<path d="M101.941 81L109.59 64.0072H112L104.519 81H101.941ZM104.799 75.5667L99.2228 64.0072H102.165L106.844 74.2639L104.799 75.5667Z" fill="white"/>
<path d="M86 58H69V61H86V58Z" fill="white"/>
</g>
<defs>
<linearGradient id="paint0_linear_4_6" x1="-2.67173" y1="17.9127" x2="138.383" y2="137.472" gradientUnits="userSpaceOnUse">
<stop stop-color="#FF1B1B"/>
<stop offset="1" stop-color="#1B84FF"/>
</linearGradient>
<clipPath id="clip0_4_6">
<rect width="128" height="128" fill="white"/>
</clipPath>
</defs>
</svg>
